<svg width="48" height="48" viewBox="0 0 48 48" fill="none" xmlns="http://www.w3.org/2000/svg">
<path d="M12.1875 8.625C13.9375 7.6875 18.75 5.8125 24 5.8125C29.25 5.8125 33.8125 7.6875 35.4375 8.625" stroke="white" stroke-width="2" stroke-linecap="round"/>
<path d="M6.9375 19.125C9 16.25 15.3375 10.5 24.1875 10.5C33.0375 10.5 39.125 16.25 41.0625 19.125" stroke="white" stroke-width="2" stroke-linecap="round"/>
<path d="M10.125 37.875C9.5625 37 8.4375 34.2375 8.4375 30.1875C8.4375 25.125 12.1875 15.375 24 15.375C33.45 15.375 37.8125 22.5 38.8125 26.0625C39.4375 28.6875 39.5711 35.0625 34.6875 35.0625C29.8039 35.0625 29.0625 31.3125 29.0625 29.625C29.0625 27.9375 27.9 25.275 24 25.125C20.1 24.975 18.875 28.4375 18.75 30.1875C18.625 33.5625 20.625 41.025 29.625 43.875" stroke="white" stroke-width="2" stroke-linecap="round"/>
<path d="M23.8125 30C23.9375 31.6875 24.1875 35.25 27.5625 37.3125C30.9375 39.375 33.9375 39.3125 36 39.375M34.3125 30C34.125 26.75 31.7625 20.25 23.8125 20.25C15.8625 20.25 13.75 26.75 13.6875 30C13.4375 32.5 14.25 38.7 19.5 43.5" stroke="white" stroke-width="2" stroke-linecap="round"/>
</svg>
