<svg width="48" height="48" viewBox="0 0 48 48" fill="none" xmlns="http://www.w3.org/2000/svg">
<path d="M31 28.9999V37.0001C31 39.2161 29.216 41.0001 27 41.0001H13C10.784 41.0001 9 39.2161 9 37.0001V11.0001C9 8.78406 10.784 7.00006 13 7.00006H27C29.216 7.00006 31 8.78406 31 11.0001V18.9999" stroke="#4D7EAB" stroke-width="2" stroke-linejoin="round"/>
<path d="M9 11H31M9 35H31H9Z" stroke="#4D7EAB" stroke-width="2"/>
<path d="M17 19C15.892 19 15 19.892 15 21V27C15 28.108 15.892 29 17 29H34L39 33V29H41C42.108 29 43 28.108 43 27V21C43 19.892 42.108 19 41 19H17Z" stroke="#4D7EAB" stroke-width="2"/>
<path d="M38 26C39.1046 26 40 25.1046 40 24C40 22.8954 39.1046 22 38 22C36.8954 22 36 22.8954 36 24C36 25.1046 36.8954 26 38 26Z" fill="#4D7EAB"/>
<path d="M32 26C33.1046 26 34 25.1046 34 24C34 22.8954 33.1046 22 32 22C30.8954 22 30 22.8954 30 24C30 25.1046 30.8954 26 32 26Z" fill="#4D7EAB"/>
<path d="M26 26C27.1046 26 28 25.1046 28 24C28 22.8954 27.1046 22 26 22C24.8954 22 24 22.8954 24 24C24 25.1046 24.8954 26 26 26Z" fill="#4D7EAB"/>
<path d="M20 26C21.1046 26 22 25.1046 22 24C22 22.8954 21.1046 22 20 22C18.8954 22 18 22.8954 18 24C18 25.1046 18.8954 26 20 26Z" fill="#4D7EAB"/>
</svg>
