<svg width="48" height="48" viewBox="0 0 48 48" fill="none" xmlns="http://www.w3.org/2000/svg">
<path d="M34.9994 37C39.4177 37 42.9995 33.4183 42.9995 29C42.9995 24.5817 39.4177 21 34.9994 21C30.5811 21 26.9993 24.5817 26.9993 29C26.9993 33.4183 30.5811 37 34.9994 37Z" stroke="white" stroke-width="2" stroke-linejoin="round"/>
<path fill-rule="evenodd" clip-rule="evenodd" d="M36.597 24.564L32 29.1233L32.0397 31.9998L34.5995 31.9797L39.4235 27.3826L36.597 24.564Z" fill="white"/>
<path d="M27.2948 31.0002H9.06049C7.91891 31.0002 6.99988 30.0813 6.99988 28.9397V19.0605C6.99988 17.9189 7.91891 17 9.06049 17H38.9395C40.0811 17 41.0001 17.9189 41.0001 19.0605V23.5784" stroke="white" stroke-width="2" stroke-linejoin="round"/>
<path d="M14 26C15.1046 26 16 25.1046 16 24C16 22.8954 15.1046 22 14 22C12.8954 22 12 22.8954 12 24C12 25.1046 12.8954 26 14 26Z" fill="white"/>
<path d="M22 26C23.1046 26 24 25.1046 24 24C24 22.8954 23.1046 22 22 22C20.8954 22 20 22.8954 20 24C20 25.1046 20.8954 26 22 26Z" fill="white"/>
</svg>
